<mxfile host="app.diagrams.net" modified="2024-04-20T04:55:57.347Z" agent="Mozilla/5.0 (Macintosh; Intel Mac OS X 10_15_7) AppleWebKit/537.36 (KHTML, like Gecko) Chrome/123.0.0.0 Safari/537.36" etag="uefg5UCDcnZ3upXZc-KD" version="24.2.7" type="github">
  <diagram name="Page-1" id="5d7acffa-a066-3a61-03fe-96351882024d">
    <mxGraphModel dx="1119" dy="992" grid="1" gridSize="10" guides="1" tooltips="1" connect="1" arrows="1" fold="1" page="1" pageScale="1" pageWidth="1700" pageHeight="1100" background="#ffffff" math="0" shadow="0">
      <root>
        <mxCell id="0" />
        <mxCell id="1" parent="0" />
        <mxCell id="21ea969265ad0168-6" value="Open Recipe" style="swimlane;html=1;fontStyle=0;childLayout=stackLayout;horizontal=1;startSize=26;fillColor=#e0e0e0;horizontalStack=0;resizeParent=1;resizeLast=0;collapsible=1;marginBottom=0;swimlaneFillColor=#ffffff;align=center;rounded=1;shadow=0;comic=0;labelBackgroundColor=none;strokeWidth=1;fontFamily=Verdana;fontSize=12" parent="1" vertex="1">
          <mxGeometry y="440" width="160" height="170" as="geometry" />
        </mxCell>
        <mxCell id="21ea969265ad0168-7" value="recipe xxx" style="text;html=1;strokeColor=#6c8ebf;fillColor=#dae8fc;spacingLeft=4;spacingRight=4;whiteSpace=wrap;overflow=hidden;rotatable=0;points=[[0,0.5],[1,0.5]];portConstraint=eastwest;" parent="21ea969265ad0168-6" vertex="1">
          <mxGeometry y="26" width="160" height="26" as="geometry" />
        </mxCell>
        <mxCell id="21ea969265ad0168-8" value="Calories" style="text;html=1;strokeColor=#82b366;fillColor=#d5e8d4;spacingLeft=4;spacingRight=4;whiteSpace=wrap;overflow=hidden;rotatable=0;points=[[0,0.5],[1,0.5]];portConstraint=eastwest;" parent="21ea969265ad0168-6" vertex="1">
          <mxGeometry y="52" width="160" height="26" as="geometry" />
        </mxCell>
        <mxCell id="21ea969265ad0168-9" value="Ingredients" style="text;html=1;strokeColor=#9673a6;fillColor=#e1d5e7;spacingLeft=4;spacingRight=4;whiteSpace=wrap;overflow=hidden;rotatable=0;points=[[0,0.5],[1,0.5]];portConstraint=eastwest;" parent="21ea969265ad0168-6" vertex="1">
          <mxGeometry y="78" width="160" height="26" as="geometry" />
        </mxCell>
        <mxCell id="0EhZLs44Lt3yZ8SNb6A7-6" value="Directions" style="text;html=1;strokeColor=#666666;fillColor=#f5f5f5;spacingLeft=4;spacingRight=4;whiteSpace=wrap;overflow=hidden;rotatable=0;points=[[0,0.5],[1,0.5]];portConstraint=eastwest;fontColor=#333333;" vertex="1" parent="21ea969265ad0168-6">
          <mxGeometry y="104" width="160" height="26" as="geometry" />
        </mxCell>
        <mxCell id="0EhZLs44Lt3yZ8SNb6A7-17" value="You might also like" style="text;html=1;strokeColor=#6c8ebf;fillColor=#dae8fc;spacingLeft=4;spacingRight=4;whiteSpace=wrap;overflow=hidden;rotatable=0;points=[[0,0.5],[1,0.5]];portConstraint=eastwest;" vertex="1" parent="21ea969265ad0168-6">
          <mxGeometry y="130" width="160" height="26" as="geometry" />
        </mxCell>
        <mxCell id="0EhZLs44Lt3yZ8SNb6A7-7" value="Recipes" style="swimlane;html=1;fontStyle=0;childLayout=stackLayout;horizontal=1;startSize=26;fillColor=#e0e0e0;horizontalStack=0;resizeParent=1;resizeLast=0;collapsible=1;marginBottom=0;swimlaneFillColor=#ffffff;align=center;rounded=1;shadow=0;comic=0;labelBackgroundColor=none;strokeWidth=1;fontFamily=Verdana;fontSize=12" vertex="1" parent="1">
          <mxGeometry y="240" width="160" height="140" as="geometry" />
        </mxCell>
        <mxCell id="0EhZLs44Lt3yZ8SNb6A7-8" value="Trending Now" style="text;html=1;strokeColor=#6c8ebf;fillColor=#dae8fc;spacingLeft=4;spacingRight=4;whiteSpace=wrap;overflow=hidden;rotatable=0;points=[[0,0.5],[1,0.5]];portConstraint=eastwest;" vertex="1" parent="0EhZLs44Lt3yZ8SNb6A7-7">
          <mxGeometry y="26" width="160" height="26" as="geometry" />
        </mxCell>
        <mxCell id="0EhZLs44Lt3yZ8SNb6A7-9" value="Top Video recipes" style="text;html=1;strokeColor=#6c8ebf;fillColor=#dae8fc;spacingLeft=4;spacingRight=4;whiteSpace=wrap;overflow=hidden;rotatable=0;points=[[0,0.5],[1,0.5]];portConstraint=eastwest;" vertex="1" parent="0EhZLs44Lt3yZ8SNb6A7-7">
          <mxGeometry y="52" width="160" height="26" as="geometry" />
        </mxCell>
        <mxCell id="0EhZLs44Lt3yZ8SNb6A7-10" value="Search by ingredient" style="text;html=1;strokeColor=#82b366;fillColor=#d5e8d4;spacingLeft=4;spacingRight=4;whiteSpace=wrap;overflow=hidden;rotatable=0;points=[[0,0.5],[1,0.5]];portConstraint=eastwest;" vertex="1" parent="0EhZLs44Lt3yZ8SNb6A7-7">
          <mxGeometry y="78" width="160" height="26" as="geometry" />
        </mxCell>
        <mxCell id="0EhZLs44Lt3yZ8SNb6A7-11" value="Quick &amp;amp; Healthy" style="text;html=1;strokeColor=#6c8ebf;fillColor=#dae8fc;spacingLeft=4;spacingRight=4;whiteSpace=wrap;overflow=hidden;rotatable=0;points=[[0,0.5],[1,0.5]];portConstraint=eastwest;" vertex="1" parent="0EhZLs44Lt3yZ8SNb6A7-7">
          <mxGeometry y="104" width="160" height="26" as="geometry" />
        </mxCell>
        <mxCell id="0EhZLs44Lt3yZ8SNb6A7-12" value="Start Screen" style="swimlane;html=1;fontStyle=0;childLayout=stackLayout;horizontal=1;startSize=26;fillColor=#e0e0e0;horizontalStack=0;resizeParent=1;resizeLast=0;collapsible=1;marginBottom=0;swimlaneFillColor=#ffffff;align=center;rounded=1;shadow=0;comic=0;labelBackgroundColor=none;strokeWidth=1;fontFamily=Verdana;fontSize=12" vertex="1" parent="1">
          <mxGeometry x="480" y="20" width="160" height="140" as="geometry" />
        </mxCell>
        <mxCell id="0EhZLs44Lt3yZ8SNb6A7-13" value="Video" style="text;html=1;strokeColor=#82b366;fillColor=#d5e8d4;spacingLeft=4;spacingRight=4;whiteSpace=wrap;overflow=hidden;rotatable=0;points=[[0,0.5],[1,0.5]];portConstraint=eastwest;" vertex="1" parent="0EhZLs44Lt3yZ8SNb6A7-12">
          <mxGeometry y="26" width="160" height="26" as="geometry" />
        </mxCell>
        <mxCell id="0EhZLs44Lt3yZ8SNb6A7-14" value="Signup with Email" style="text;html=1;strokeColor=#6c8ebf;fillColor=#dae8fc;spacingLeft=4;spacingRight=4;whiteSpace=wrap;overflow=hidden;rotatable=0;points=[[0,0.5],[1,0.5]];portConstraint=eastwest;" vertex="1" parent="0EhZLs44Lt3yZ8SNb6A7-12">
          <mxGeometry y="52" width="160" height="26" as="geometry" />
        </mxCell>
        <mxCell id="0EhZLs44Lt3yZ8SNb6A7-15" value="Continue with Apple" style="text;html=1;strokeColor=#6c8ebf;fillColor=#dae8fc;spacingLeft=4;spacingRight=4;whiteSpace=wrap;overflow=hidden;rotatable=0;points=[[0,0.5],[1,0.5]];portConstraint=eastwest;" vertex="1" parent="0EhZLs44Lt3yZ8SNb6A7-12">
          <mxGeometry y="78" width="160" height="26" as="geometry" />
        </mxCell>
        <mxCell id="0EhZLs44Lt3yZ8SNb6A7-16" value="Already have account" style="text;html=1;strokeColor=#9673a6;fillColor=#e1d5e7;spacingLeft=4;spacingRight=4;whiteSpace=wrap;overflow=hidden;rotatable=0;points=[[0,0.5],[1,0.5]];portConstraint=eastwest;" vertex="1" parent="0EhZLs44Lt3yZ8SNb6A7-12">
          <mxGeometry y="104" width="160" height="26" as="geometry" />
        </mxCell>
        <mxCell id="0EhZLs44Lt3yZ8SNb6A7-19" value="Step by Step mode" style="swimlane;html=1;fontStyle=0;childLayout=stackLayout;horizontal=1;startSize=26;fillColor=#e0e0e0;horizontalStack=0;resizeParent=1;resizeLast=0;collapsible=1;marginBottom=0;swimlaneFillColor=#ffffff;align=center;rounded=1;shadow=0;comic=0;labelBackgroundColor=none;strokeWidth=1;fontFamily=Verdana;fontSize=12" vertex="1" parent="1">
          <mxGeometry y="660" width="160" height="120" as="geometry" />
        </mxCell>
        <mxCell id="0EhZLs44Lt3yZ8SNb6A7-20" value="Step 1" style="text;html=1;strokeColor=#6c8ebf;fillColor=#dae8fc;spacingLeft=4;spacingRight=4;whiteSpace=wrap;overflow=hidden;rotatable=0;points=[[0,0.5],[1,0.5]];portConstraint=eastwest;" vertex="1" parent="0EhZLs44Lt3yZ8SNb6A7-19">
          <mxGeometry y="26" width="160" height="26" as="geometry" />
        </mxCell>
        <mxCell id="0EhZLs44Lt3yZ8SNb6A7-21" value="Step 2" style="text;html=1;strokeColor=#6c8ebf;fillColor=#dae8fc;spacingLeft=4;spacingRight=4;whiteSpace=wrap;overflow=hidden;rotatable=0;points=[[0,0.5],[1,0.5]];portConstraint=eastwest;" vertex="1" parent="0EhZLs44Lt3yZ8SNb6A7-19">
          <mxGeometry y="52" width="160" height="26" as="geometry" />
        </mxCell>
        <mxCell id="0EhZLs44Lt3yZ8SNb6A7-22" value="Step ..." style="text;html=1;strokeColor=#d79b00;fillColor=#ffe6cc;spacingLeft=4;spacingRight=4;whiteSpace=wrap;overflow=hidden;rotatable=0;points=[[0,0.5],[1,0.5]];portConstraint=eastwest;" vertex="1" parent="0EhZLs44Lt3yZ8SNb6A7-19">
          <mxGeometry y="78" width="160" height="26" as="geometry" />
        </mxCell>
        <mxCell id="0EhZLs44Lt3yZ8SNb6A7-24" value="Filter" style="swimlane;html=1;fontStyle=0;childLayout=stackLayout;horizontal=1;startSize=26;fillColor=#e0e0e0;horizontalStack=0;resizeParent=1;resizeLast=0;collapsible=1;marginBottom=0;swimlaneFillColor=#ffffff;align=center;rounded=1;shadow=0;comic=0;labelBackgroundColor=none;strokeWidth=1;fontFamily=Verdana;fontSize=12;arcSize=24;" vertex="1" parent="1">
          <mxGeometry x="240" y="410" width="160" height="170" as="geometry" />
        </mxCell>
        <mxCell id="0EhZLs44Lt3yZ8SNb6A7-25" value="Dish type" style="text;html=1;strokeColor=#6c8ebf;fillColor=#dae8fc;spacingLeft=4;spacingRight=4;whiteSpace=wrap;overflow=hidden;rotatable=0;points=[[0,0.5],[1,0.5]];portConstraint=eastwest;" vertex="1" parent="0EhZLs44Lt3yZ8SNb6A7-24">
          <mxGeometry y="26" width="160" height="26" as="geometry" />
        </mxCell>
        <mxCell id="0EhZLs44Lt3yZ8SNb6A7-26" value="Cook Time" style="text;html=1;strokeColor=#666666;fillColor=#f5f5f5;spacingLeft=4;spacingRight=4;whiteSpace=wrap;overflow=hidden;rotatable=0;points=[[0,0.5],[1,0.5]];portConstraint=eastwest;fontColor=#333333;" vertex="1" parent="0EhZLs44Lt3yZ8SNb6A7-24">
          <mxGeometry y="52" width="160" height="26" as="geometry" />
        </mxCell>
        <mxCell id="0EhZLs44Lt3yZ8SNb6A7-27" value="Suggested diets" style="text;html=1;strokeColor=#6c8ebf;fillColor=#dae8fc;spacingLeft=4;spacingRight=4;whiteSpace=wrap;overflow=hidden;rotatable=0;points=[[0,0.5],[1,0.5]];portConstraint=eastwest;" vertex="1" parent="0EhZLs44Lt3yZ8SNb6A7-24">
          <mxGeometry y="78" width="160" height="26" as="geometry" />
        </mxCell>
        <mxCell id="0EhZLs44Lt3yZ8SNb6A7-28" value="Tools &amp;amp; Appliances" style="text;html=1;strokeColor=#666666;fillColor=#f5f5f5;spacingLeft=4;spacingRight=4;whiteSpace=wrap;overflow=hidden;rotatable=0;points=[[0,0.5],[1,0.5]];portConstraint=eastwest;fontColor=#333333;" vertex="1" parent="0EhZLs44Lt3yZ8SNb6A7-24">
          <mxGeometry y="104" width="160" height="26" as="geometry" />
        </mxCell>
        <mxCell id="0EhZLs44Lt3yZ8SNb6A7-29" value="Occesions" style="text;html=1;strokeColor=#6c8ebf;fillColor=#dae8fc;spacingLeft=4;spacingRight=4;whiteSpace=wrap;overflow=hidden;rotatable=0;points=[[0,0.5],[1,0.5]];portConstraint=eastwest;" vertex="1" parent="0EhZLs44Lt3yZ8SNb6A7-24">
          <mxGeometry y="130" width="160" height="26" as="geometry" />
        </mxCell>
        <mxCell id="0EhZLs44Lt3yZ8SNb6A7-30" value="Explore" style="swimlane;html=1;fontStyle=0;childLayout=stackLayout;horizontal=1;startSize=26;fillColor=#e0e0e0;horizontalStack=0;resizeParent=1;resizeLast=0;collapsible=1;marginBottom=0;swimlaneFillColor=#ffffff;align=center;rounded=1;shadow=0;comic=0;labelBackgroundColor=none;strokeWidth=1;fontFamily=Verdana;fontSize=12" vertex="1" parent="1">
          <mxGeometry x="240" y="240" width="160" height="120" as="geometry" />
        </mxCell>
        <mxCell id="0EhZLs44Lt3yZ8SNb6A7-31" value="Search" style="text;html=1;strokeColor=#666666;fillColor=#f5f5f5;spacingLeft=4;spacingRight=4;whiteSpace=wrap;overflow=hidden;rotatable=0;points=[[0,0.5],[1,0.5]];portConstraint=eastwest;fontColor=#333333;" vertex="1" parent="0EhZLs44Lt3yZ8SNb6A7-30">
          <mxGeometry y="26" width="160" height="26" as="geometry" />
        </mxCell>
        <mxCell id="0EhZLs44Lt3yZ8SNb6A7-32" value="Quick search" style="text;html=1;strokeColor=#6c8ebf;fillColor=#dae8fc;spacingLeft=4;spacingRight=4;whiteSpace=wrap;overflow=hidden;rotatable=0;points=[[0,0.5],[1,0.5]];portConstraint=eastwest;" vertex="1" parent="0EhZLs44Lt3yZ8SNb6A7-30">
          <mxGeometry y="52" width="160" height="26" as="geometry" />
        </mxCell>
        <mxCell id="0EhZLs44Lt3yZ8SNb6A7-33" value="Popular tags" style="text;html=1;strokeColor=#6c8ebf;fillColor=#dae8fc;spacingLeft=4;spacingRight=4;whiteSpace=wrap;overflow=hidden;rotatable=0;points=[[0,0.5],[1,0.5]];portConstraint=eastwest;" vertex="1" parent="0EhZLs44Lt3yZ8SNb6A7-30">
          <mxGeometry y="78" width="160" height="26" as="geometry" />
        </mxCell>
        <mxCell id="0EhZLs44Lt3yZ8SNb6A7-35" value="Searching Results" style="swimlane;html=1;fontStyle=0;childLayout=stackLayout;horizontal=1;startSize=26;fillColor=#e0e0e0;horizontalStack=0;resizeParent=1;resizeLast=0;collapsible=1;marginBottom=0;swimlaneFillColor=#ffffff;align=center;rounded=1;shadow=0;comic=0;labelBackgroundColor=none;strokeWidth=1;fontFamily=Verdana;fontSize=12;perimeterSpacing=1;" vertex="1" parent="1">
          <mxGeometry x="240" y="630" width="160" height="140" as="geometry" />
        </mxCell>
        <mxCell id="0EhZLs44Lt3yZ8SNb6A7-41" value="Recipes" style="shape=table;startSize=30;container=1;collapsible=0;childLayout=tableLayout;strokeColor=default;fontSize=16;" vertex="1" parent="0EhZLs44Lt3yZ8SNb6A7-35">
          <mxGeometry y="26" width="160" height="114" as="geometry" />
        </mxCell>
        <mxCell id="0EhZLs44Lt3yZ8SNb6A7-42" value="" style="shape=tableRow;horizontal=0;startSize=0;swimlaneHead=0;swimlaneBody=0;strokeColor=inherit;top=0;left=0;bottom=0;right=0;collapsible=0;dropTarget=0;fillColor=none;points=[[0,0.5],[1,0.5]];portConstraint=eastwest;fontSize=16;" vertex="1" parent="0EhZLs44Lt3yZ8SNb6A7-41">
          <mxGeometry y="30" width="160" height="29" as="geometry" />
        </mxCell>
        <mxCell id="0EhZLs44Lt3yZ8SNb6A7-43" value="" style="shape=partialRectangle;html=1;whiteSpace=wrap;connectable=0;overflow=hidden;top=0;left=0;bottom=0;right=0;pointerEvents=1;fontSize=16;strokeColor=inherit;" vertex="1" parent="0EhZLs44Lt3yZ8SNb6A7-42">
          <mxGeometry width="53" height="29" as="geometry">
            <mxRectangle width="53" height="29" as="alternateBounds" />
          </mxGeometry>
        </mxCell>
        <mxCell id="0EhZLs44Lt3yZ8SNb6A7-44" value="" style="shape=partialRectangle;html=1;whiteSpace=wrap;connectable=0;overflow=hidden;top=0;left=0;bottom=0;right=0;pointerEvents=1;fontSize=16;strokeColor=inherit;strokeWidth=0;" vertex="1" parent="0EhZLs44Lt3yZ8SNb6A7-42">
          <mxGeometry x="53" width="54" height="29" as="geometry">
            <mxRectangle width="54" height="29" as="alternateBounds" />
          </mxGeometry>
        </mxCell>
        <mxCell id="0EhZLs44Lt3yZ8SNb6A7-45" value="" style="shape=partialRectangle;html=1;whiteSpace=wrap;connectable=0;overflow=hidden;top=0;left=0;bottom=0;right=0;pointerEvents=1;fontSize=16;strokeColor=inherit;" vertex="1" parent="0EhZLs44Lt3yZ8SNb6A7-42">
          <mxGeometry x="107" width="53" height="29" as="geometry">
            <mxRectangle width="53" height="29" as="alternateBounds" />
          </mxGeometry>
        </mxCell>
        <mxCell id="0EhZLs44Lt3yZ8SNb6A7-46" value="" style="shape=tableRow;horizontal=0;startSize=0;swimlaneHead=0;swimlaneBody=0;strokeColor=inherit;top=0;left=0;bottom=0;right=0;collapsible=0;dropTarget=0;fillColor=none;points=[[0,0.5],[1,0.5]];portConstraint=eastwest;fontSize=16;" vertex="1" parent="0EhZLs44Lt3yZ8SNb6A7-41">
          <mxGeometry y="59" width="160" height="26" as="geometry" />
        </mxCell>
        <mxCell id="0EhZLs44Lt3yZ8SNb6A7-47" value="" style="shape=partialRectangle;html=1;whiteSpace=wrap;connectable=0;strokeColor=#000033;overflow=hidden;fillColor=#d5e8d4;top=1;left=1;bottom=1;right=1;pointerEvents=1;fontSize=16;perimeterSpacing=1;" vertex="1" parent="0EhZLs44Lt3yZ8SNb6A7-46">
          <mxGeometry width="53" height="26" as="geometry">
            <mxRectangle width="53" height="26" as="alternateBounds" />
          </mxGeometry>
        </mxCell>
        <mxCell id="0EhZLs44Lt3yZ8SNb6A7-48" value="" style="shape=partialRectangle;html=1;whiteSpace=wrap;connectable=0;strokeColor=#000033;overflow=hidden;fillColor=#dae8fc;top=1;left=1;bottom=1;right=1;pointerEvents=1;fontSize=16;" vertex="1" parent="0EhZLs44Lt3yZ8SNb6A7-46">
          <mxGeometry x="53" width="54" height="26" as="geometry">
            <mxRectangle width="54" height="26" as="alternateBounds" />
          </mxGeometry>
        </mxCell>
        <mxCell id="0EhZLs44Lt3yZ8SNb6A7-49" value="" style="shape=partialRectangle;html=1;whiteSpace=wrap;connectable=0;strokeColor=#000033;overflow=hidden;fillColor=#d5e8d4;top=1;left=1;bottom=1;right=1;pointerEvents=1;fontSize=16;" vertex="1" parent="0EhZLs44Lt3yZ8SNb6A7-46">
          <mxGeometry x="107" width="53" height="26" as="geometry">
            <mxRectangle width="53" height="26" as="alternateBounds" />
          </mxGeometry>
        </mxCell>
        <mxCell id="0EhZLs44Lt3yZ8SNb6A7-50" value="" style="shape=tableRow;horizontal=0;startSize=0;swimlaneHead=0;swimlaneBody=0;strokeColor=inherit;top=0;left=0;bottom=0;right=0;collapsible=0;dropTarget=0;fillColor=none;points=[[0,0.5],[1,0.5]];portConstraint=eastwest;fontSize=16;" vertex="1" parent="0EhZLs44Lt3yZ8SNb6A7-41">
          <mxGeometry y="85" width="160" height="29" as="geometry" />
        </mxCell>
        <mxCell id="0EhZLs44Lt3yZ8SNb6A7-51" value="" style="shape=partialRectangle;html=1;whiteSpace=wrap;connectable=0;overflow=hidden;top=1;left=0;bottom=0;right=0;pointerEvents=1;fontSize=16;" vertex="1" parent="0EhZLs44Lt3yZ8SNb6A7-50">
          <mxGeometry width="53" height="29" as="geometry">
            <mxRectangle width="53" height="29" as="alternateBounds" />
          </mxGeometry>
        </mxCell>
        <mxCell id="0EhZLs44Lt3yZ8SNb6A7-52" value="" style="shape=partialRectangle;html=1;whiteSpace=wrap;connectable=0;overflow=hidden;top=1;left=0;bottom=0;right=0;pointerEvents=1;fontSize=16;" vertex="1" parent="0EhZLs44Lt3yZ8SNb6A7-50">
          <mxGeometry x="53" width="54" height="29" as="geometry">
            <mxRectangle width="54" height="29" as="alternateBounds" />
          </mxGeometry>
        </mxCell>
        <mxCell id="0EhZLs44Lt3yZ8SNb6A7-53" value="" style="shape=partialRectangle;html=1;whiteSpace=wrap;connectable=0;overflow=hidden;top=1;left=0;bottom=0;right=0;pointerEvents=1;fontSize=16;" vertex="1" parent="0EhZLs44Lt3yZ8SNb6A7-50">
          <mxGeometry x="107" width="53" height="29" as="geometry">
            <mxRectangle width="53" height="29" as="alternateBounds" />
          </mxGeometry>
        </mxCell>
        <mxCell id="0EhZLs44Lt3yZ8SNb6A7-54" value="Shopping List" style="swimlane;html=1;fontStyle=0;childLayout=stackLayout;horizontal=1;startSize=26;fillColor=#e0e0e0;horizontalStack=0;resizeParent=1;resizeLast=0;collapsible=1;marginBottom=0;swimlaneFillColor=#ffffff;align=center;rounded=1;shadow=0;comic=0;labelBackgroundColor=none;strokeWidth=1;fontFamily=Verdana;fontSize=12;arcSize=24;" vertex="1" parent="1">
          <mxGeometry x="480" y="410" width="160" height="170" as="geometry" />
        </mxCell>
        <mxCell id="0EhZLs44Lt3yZ8SNb6A7-55" value="Ingredient" style="text;html=1;strokeColor=#6c8ebf;fillColor=#dae8fc;spacingLeft=4;spacingRight=4;whiteSpace=wrap;overflow=hidden;rotatable=0;points=[[0,0.5],[1,0.5]];portConstraint=eastwest;" vertex="1" parent="0EhZLs44Lt3yZ8SNb6A7-54">
          <mxGeometry y="26" width="160" height="26" as="geometry" />
        </mxCell>
        <mxCell id="0EhZLs44Lt3yZ8SNb6A7-64" value="Ingredient" style="text;html=1;spacingLeft=4;spacingRight=4;whiteSpace=wrap;overflow=hidden;rotatable=0;points=[[0,0.5],[1,0.5]];portConstraint=eastwest;fillColor=#f5f5f5;fontColor=#333333;strokeColor=#666666;" vertex="1" parent="0EhZLs44Lt3yZ8SNb6A7-54">
          <mxGeometry y="52" width="160" height="26" as="geometry" />
        </mxCell>
        <mxCell id="0EhZLs44Lt3yZ8SNb6A7-65" value="Ingredient" style="text;html=1;strokeColor=#6c8ebf;fillColor=#dae8fc;spacingLeft=4;spacingRight=4;whiteSpace=wrap;overflow=hidden;rotatable=0;points=[[0,0.5],[1,0.5]];portConstraint=eastwest;" vertex="1" parent="0EhZLs44Lt3yZ8SNb6A7-54">
          <mxGeometry y="78" width="160" height="26" as="geometry" />
        </mxCell>
        <mxCell id="0EhZLs44Lt3yZ8SNb6A7-66" value="Ingredient" style="text;html=1;spacingLeft=4;spacingRight=4;whiteSpace=wrap;overflow=hidden;rotatable=0;points=[[0,0.5],[1,0.5]];portConstraint=eastwest;fillColor=#f5f5f5;fontColor=#333333;strokeColor=#666666;" vertex="1" parent="0EhZLs44Lt3yZ8SNb6A7-54">
          <mxGeometry y="104" width="160" height="26" as="geometry" />
        </mxCell>
        <mxCell id="0EhZLs44Lt3yZ8SNb6A7-67" value="Ingredient" style="text;html=1;strokeColor=#6c8ebf;fillColor=#dae8fc;spacingLeft=4;spacingRight=4;whiteSpace=wrap;overflow=hidden;rotatable=0;points=[[0,0.5],[1,0.5]];portConstraint=eastwest;" vertex="1" parent="0EhZLs44Lt3yZ8SNb6A7-54">
          <mxGeometry y="130" width="160" height="26" as="geometry" />
        </mxCell>
        <mxCell id="0EhZLs44Lt3yZ8SNb6A7-60" value="Grocery" style="swimlane;html=1;fontStyle=0;childLayout=stackLayout;horizontal=1;startSize=26;fillColor=#e0e0e0;horizontalStack=0;resizeParent=1;resizeLast=0;collapsible=1;marginBottom=0;swimlaneFillColor=#ffffff;align=center;rounded=1;shadow=0;comic=0;labelBackgroundColor=none;strokeWidth=1;fontFamily=Verdana;fontSize=12" vertex="1" parent="1">
          <mxGeometry x="480" y="240" width="160" height="120" as="geometry" />
        </mxCell>
        <mxCell id="0EhZLs44Lt3yZ8SNb6A7-61" value="Shopping List 1" style="text;html=1;strokeColor=#6c8ebf;fillColor=#dae8fc;spacingLeft=4;spacingRight=4;whiteSpace=wrap;overflow=hidden;rotatable=0;points=[[0,0.5],[1,0.5]];portConstraint=eastwest;" vertex="1" parent="0EhZLs44Lt3yZ8SNb6A7-60">
          <mxGeometry y="26" width="160" height="26" as="geometry" />
        </mxCell>
        <mxCell id="0EhZLs44Lt3yZ8SNb6A7-62" value="Shopping List 2" style="text;html=1;strokeColor=#6c8ebf;fillColor=#dae8fc;spacingLeft=4;spacingRight=4;whiteSpace=wrap;overflow=hidden;rotatable=0;points=[[0,0.5],[1,0.5]];portConstraint=eastwest;" vertex="1" parent="0EhZLs44Lt3yZ8SNb6A7-60">
          <mxGeometry y="52" width="160" height="26" as="geometry" />
        </mxCell>
        <mxCell id="0EhZLs44Lt3yZ8SNb6A7-63" value="Shopping List 2" style="text;html=1;strokeColor=#6c8ebf;fillColor=#dae8fc;spacingLeft=4;spacingRight=4;whiteSpace=wrap;overflow=hidden;rotatable=0;points=[[0,0.5],[1,0.5]];portConstraint=eastwest;" vertex="1" parent="0EhZLs44Lt3yZ8SNb6A7-60">
          <mxGeometry y="78" width="160" height="26" as="geometry" />
        </mxCell>
        <mxCell id="0EhZLs44Lt3yZ8SNb6A7-68" value="Settings" style="swimlane;html=1;fontStyle=0;childLayout=stackLayout;horizontal=1;startSize=26;fillColor=#e0e0e0;horizontalStack=0;resizeParent=1;resizeLast=0;collapsible=1;marginBottom=0;swimlaneFillColor=#ffffff;align=center;rounded=1;shadow=0;comic=0;labelBackgroundColor=none;strokeWidth=1;fontFamily=Verdana;fontSize=12;arcSize=24;" vertex="1" parent="1">
          <mxGeometry x="710" y="410" width="160" height="150" as="geometry" />
        </mxCell>
        <mxCell id="0EhZLs44Lt3yZ8SNb6A7-69" value="Contact Info" style="text;html=1;strokeColor=#666666;fillColor=#f5f5f5;spacingLeft=4;spacingRight=4;whiteSpace=wrap;overflow=hidden;rotatable=0;points=[[0,0.5],[1,0.5]];portConstraint=eastwest;fontColor=#333333;" vertex="1" parent="0EhZLs44Lt3yZ8SNb6A7-68">
          <mxGeometry y="26" width="160" height="26" as="geometry" />
        </mxCell>
        <mxCell id="0EhZLs44Lt3yZ8SNb6A7-70" value="Language" style="text;html=1;spacingLeft=4;spacingRight=4;whiteSpace=wrap;overflow=hidden;rotatable=0;points=[[0,0.5],[1,0.5]];portConstraint=eastwest;fillColor=#dae8fc;strokeColor=#6c8ebf;" vertex="1" parent="0EhZLs44Lt3yZ8SNb6A7-68">
          <mxGeometry y="52" width="160" height="26" as="geometry" />
        </mxCell>
        <mxCell id="0EhZLs44Lt3yZ8SNb6A7-71" value="Notifications" style="text;html=1;strokeColor=#9673a6;fillColor=#e1d5e7;spacingLeft=4;spacingRight=4;whiteSpace=wrap;overflow=hidden;rotatable=0;points=[[0,0.5],[1,0.5]];portConstraint=eastwest;" vertex="1" parent="0EhZLs44Lt3yZ8SNb6A7-68">
          <mxGeometry y="78" width="160" height="26" as="geometry" />
        </mxCell>
        <mxCell id="0EhZLs44Lt3yZ8SNb6A7-72" value="Support" style="text;html=1;spacingLeft=4;spacingRight=4;whiteSpace=wrap;overflow=hidden;rotatable=0;points=[[0,0.5],[1,0.5]];portConstraint=eastwest;fillColor=#dae8fc;strokeColor=#6c8ebf;" vertex="1" parent="0EhZLs44Lt3yZ8SNb6A7-68">
          <mxGeometry y="104" width="160" height="26" as="geometry" />
        </mxCell>
        <mxCell id="0EhZLs44Lt3yZ8SNb6A7-74" value="Profile" style="swimlane;html=1;fontStyle=0;childLayout=stackLayout;horizontal=1;startSize=26;fillColor=#e0e0e0;horizontalStack=0;resizeParent=1;resizeLast=0;collapsible=1;marginBottom=0;swimlaneFillColor=#ffffff;align=center;rounded=1;shadow=0;comic=0;labelBackgroundColor=none;strokeWidth=1;fontFamily=Verdana;fontSize=12" vertex="1" parent="1">
          <mxGeometry x="710" y="240" width="160" height="120" as="geometry" />
        </mxCell>
        <mxCell id="0EhZLs44Lt3yZ8SNb6A7-75" value="Change Profile" style="text;html=1;strokeColor=#82b366;fillColor=#d5e8d4;spacingLeft=4;spacingRight=4;whiteSpace=wrap;overflow=hidden;rotatable=0;points=[[0,0.5],[1,0.5]];portConstraint=eastwest;" vertex="1" parent="0EhZLs44Lt3yZ8SNb6A7-74">
          <mxGeometry y="26" width="160" height="26" as="geometry" />
        </mxCell>
        <mxCell id="0EhZLs44Lt3yZ8SNb6A7-76" value="Favorites" style="text;html=1;strokeColor=#6c8ebf;fillColor=#dae8fc;spacingLeft=4;spacingRight=4;whiteSpace=wrap;overflow=hidden;rotatable=0;points=[[0,0.5],[1,0.5]];portConstraint=eastwest;" vertex="1" parent="0EhZLs44Lt3yZ8SNb6A7-74">
          <mxGeometry y="52" width="160" height="26" as="geometry" />
        </mxCell>
        <mxCell id="0EhZLs44Lt3yZ8SNb6A7-77" value="Cooked Dishes" style="text;html=1;strokeColor=#6c8ebf;fillColor=#dae8fc;spacingLeft=4;spacingRight=4;whiteSpace=wrap;overflow=hidden;rotatable=0;points=[[0,0.5],[1,0.5]];portConstraint=eastwest;" vertex="1" parent="0EhZLs44Lt3yZ8SNb6A7-74">
          <mxGeometry y="78" width="160" height="26" as="geometry" />
        </mxCell>
        <mxCell id="0EhZLs44Lt3yZ8SNb6A7-78" value="Success" style="swimlane;html=1;fontStyle=0;childLayout=stackLayout;horizontal=1;startSize=26;fillColor=#e0e0e0;horizontalStack=0;resizeParent=1;resizeLast=0;collapsible=1;marginBottom=0;swimlaneFillColor=#ffffff;align=center;rounded=1;shadow=0;comic=0;labelBackgroundColor=none;strokeWidth=1;fontFamily=Verdana;fontSize=12;arcSize=24;" vertex="1" parent="1">
          <mxGeometry x="940" y="450" width="160" height="170" as="geometry" />
        </mxCell>
        <mxCell id="0EhZLs44Lt3yZ8SNb6A7-79" value="Thank you. Recipe added" style="text;html=1;strokeColor=#82b366;fillColor=#d5e8d4;spacingLeft=4;spacingRight=4;whiteSpace=wrap;overflow=hidden;rotatable=0;points=[[0,0.5],[1,0.5]];portConstraint=eastwest;" vertex="1" parent="0EhZLs44Lt3yZ8SNb6A7-78">
          <mxGeometry y="26" width="160" height="26" as="geometry" />
        </mxCell>
        <mxCell id="0EhZLs44Lt3yZ8SNb6A7-80" value="Opps. you have not completed the ..." style="text;html=1;spacingLeft=4;spacingRight=4;whiteSpace=wrap;overflow=hidden;rotatable=0;points=[[0,0.5],[1,0.5]];portConstraint=eastwest;fillColor=#ffe6cc;strokeColor=#d79b00;" vertex="1" parent="0EhZLs44Lt3yZ8SNb6A7-78">
          <mxGeometry y="52" width="160" height="48" as="geometry" />
        </mxCell>
        <mxCell id="0EhZLs44Lt3yZ8SNb6A7-84" value="Add new recipe" style="swimlane;html=1;fontStyle=0;childLayout=stackLayout;horizontal=1;startSize=26;fillColor=#e0e0e0;horizontalStack=0;resizeParent=1;resizeLast=0;collapsible=1;marginBottom=0;swimlaneFillColor=#ffffff;align=center;rounded=1;shadow=0;comic=0;labelBackgroundColor=none;strokeWidth=1;fontFamily=Verdana;fontSize=12" vertex="1" parent="1">
          <mxGeometry x="940" y="240" width="160" height="170" as="geometry" />
        </mxCell>
        <mxCell id="0EhZLs44Lt3yZ8SNb6A7-85" value="Name of recipe" style="text;html=1;strokeColor=#6c8ebf;fillColor=#dae8fc;spacingLeft=4;spacingRight=4;whiteSpace=wrap;overflow=hidden;rotatable=0;points=[[0,0.5],[1,0.5]];portConstraint=eastwest;" vertex="1" parent="0EhZLs44Lt3yZ8SNb6A7-84">
          <mxGeometry y="26" width="160" height="26" as="geometry" />
        </mxCell>
        <mxCell id="0EhZLs44Lt3yZ8SNb6A7-86" value="Ingredients" style="text;html=1;strokeColor=#9673a6;fillColor=#e1d5e7;spacingLeft=4;spacingRight=4;whiteSpace=wrap;overflow=hidden;rotatable=0;points=[[0,0.5],[1,0.5]];portConstraint=eastwest;" vertex="1" parent="0EhZLs44Lt3yZ8SNb6A7-84">
          <mxGeometry y="52" width="160" height="26" as="geometry" />
        </mxCell>
        <mxCell id="0EhZLs44Lt3yZ8SNb6A7-87" value="Calories" style="text;html=1;strokeColor=#82b366;fillColor=#d5e8d4;spacingLeft=4;spacingRight=4;whiteSpace=wrap;overflow=hidden;rotatable=0;points=[[0,0.5],[1,0.5]];portConstraint=eastwest;" vertex="1" parent="0EhZLs44Lt3yZ8SNb6A7-84">
          <mxGeometry y="78" width="160" height="26" as="geometry" />
        </mxCell>
        <mxCell id="0EhZLs44Lt3yZ8SNb6A7-93" value="Step by step" style="text;html=1;strokeColor=#666666;fillColor=#f5f5f5;spacingLeft=4;spacingRight=4;whiteSpace=wrap;overflow=hidden;rotatable=0;points=[[0,0.5],[1,0.5]];portConstraint=eastwest;fontColor=#333333;" vertex="1" parent="0EhZLs44Lt3yZ8SNb6A7-84">
          <mxGeometry y="104" width="160" height="26" as="geometry" />
        </mxCell>
        <mxCell id="0EhZLs44Lt3yZ8SNb6A7-94" value="Confirm" style="text;html=1;strokeColor=#d79b00;fillColor=#ffe6cc;spacingLeft=4;spacingRight=4;whiteSpace=wrap;overflow=hidden;rotatable=0;points=[[0,0.5],[1,0.5]];portConstraint=eastwest;" vertex="1" parent="0EhZLs44Lt3yZ8SNb6A7-84">
          <mxGeometry y="130" width="160" height="26" as="geometry" />
        </mxCell>
        <mxCell id="0EhZLs44Lt3yZ8SNb6A7-88" value="Support" style="swimlane;html=1;fontStyle=0;childLayout=stackLayout;horizontal=1;startSize=26;fillColor=#e0e0e0;horizontalStack=0;resizeParent=1;resizeLast=0;collapsible=1;marginBottom=0;swimlaneFillColor=#ffffff;align=center;rounded=1;shadow=0;comic=0;labelBackgroundColor=none;strokeWidth=1;fontFamily=Verdana;fontSize=12;arcSize=24;" vertex="1" parent="1">
          <mxGeometry x="710" y="600" width="160" height="150" as="geometry" />
        </mxCell>
        <mxCell id="0EhZLs44Lt3yZ8SNb6A7-89" value="Your Name" style="text;html=1;strokeColor=#666666;fillColor=#f5f5f5;spacingLeft=4;spacingRight=4;whiteSpace=wrap;overflow=hidden;rotatable=0;points=[[0,0.5],[1,0.5]];portConstraint=eastwest;fontColor=#333333;" vertex="1" parent="0EhZLs44Lt3yZ8SNb6A7-88">
          <mxGeometry y="26" width="160" height="26" as="geometry" />
        </mxCell>
        <mxCell id="0EhZLs44Lt3yZ8SNb6A7-90" value="Topic" style="text;html=1;spacingLeft=4;spacingRight=4;whiteSpace=wrap;overflow=hidden;rotatable=0;points=[[0,0.5],[1,0.5]];portConstraint=eastwest;fillColor=#dae8fc;strokeColor=#6c8ebf;" vertex="1" parent="0EhZLs44Lt3yZ8SNb6A7-88">
          <mxGeometry y="52" width="160" height="26" as="geometry" />
        </mxCell>
        <mxCell id="0EhZLs44Lt3yZ8SNb6A7-91" value="Message" style="text;html=1;strokeColor=#9673a6;fillColor=#e1d5e7;spacingLeft=4;spacingRight=4;whiteSpace=wrap;overflow=hidden;rotatable=0;points=[[0,0.5],[1,0.5]];portConstraint=eastwest;" vertex="1" parent="0EhZLs44Lt3yZ8SNb6A7-88">
          <mxGeometry y="78" width="160" height="26" as="geometry" />
        </mxCell>
        <mxCell id="0EhZLs44Lt3yZ8SNb6A7-92" value="Confirm" style="text;html=1;spacingLeft=4;spacingRight=4;whiteSpace=wrap;overflow=hidden;rotatable=0;points=[[0,0.5],[1,0.5]];portConstraint=eastwest;fillColor=#d5e8d4;strokeColor=#82b366;" vertex="1" parent="0EhZLs44Lt3yZ8SNb6A7-88">
          <mxGeometry y="104" width="160" height="26" as="geometry" />
        </mxCell>
        <mxCell id="0EhZLs44Lt3yZ8SNb6A7-97" value="" style="endArrow=none;html=1;rounded=0;entryX=0.5;entryY=1;entryDx=0;entryDy=0;exitX=0.5;exitY=0;exitDx=0;exitDy=0;" edge="1" parent="1" source="0EhZLs44Lt3yZ8SNb6A7-60" target="0EhZLs44Lt3yZ8SNb6A7-12">
          <mxGeometry width="50" height="50" relative="1" as="geometry">
            <mxPoint x="520" y="510" as="sourcePoint" />
            <mxPoint x="570" y="460" as="targetPoint" />
          </mxGeometry>
        </mxCell>
        <mxCell id="0EhZLs44Lt3yZ8SNb6A7-98" value="" style="endArrow=none;html=1;rounded=0;" edge="1" parent="1">
          <mxGeometry width="50" height="50" relative="1" as="geometry">
            <mxPoint x="80" y="200" as="sourcePoint" />
            <mxPoint x="1020" y="200" as="targetPoint" />
          </mxGeometry>
        </mxCell>
        <mxCell id="0EhZLs44Lt3yZ8SNb6A7-99" value="" style="endArrow=none;html=1;rounded=0;exitX=0.5;exitY=0;exitDx=0;exitDy=0;" edge="1" parent="1" source="0EhZLs44Lt3yZ8SNb6A7-7">
          <mxGeometry width="50" height="50" relative="1" as="geometry">
            <mxPoint x="520" y="510" as="sourcePoint" />
            <mxPoint x="80" y="200" as="targetPoint" />
          </mxGeometry>
        </mxCell>
        <mxCell id="0EhZLs44Lt3yZ8SNb6A7-101" value="" style="endArrow=none;html=1;rounded=0;entryX=0.5;entryY=0;entryDx=0;entryDy=0;" edge="1" parent="1" target="0EhZLs44Lt3yZ8SNb6A7-30">
          <mxGeometry width="50" height="50" relative="1" as="geometry">
            <mxPoint x="320" y="200" as="sourcePoint" />
            <mxPoint x="570" y="460" as="targetPoint" />
          </mxGeometry>
        </mxCell>
        <mxCell id="0EhZLs44Lt3yZ8SNb6A7-102" value="" style="endArrow=none;html=1;rounded=0;exitX=0.5;exitY=0;exitDx=0;exitDy=0;" edge="1" parent="1" source="0EhZLs44Lt3yZ8SNb6A7-74">
          <mxGeometry width="50" height="50" relative="1" as="geometry">
            <mxPoint x="520" y="510" as="sourcePoint" />
            <mxPoint x="790" y="200" as="targetPoint" />
          </mxGeometry>
        </mxCell>
        <mxCell id="0EhZLs44Lt3yZ8SNb6A7-103" value="" style="endArrow=none;html=1;rounded=0;exitX=0.5;exitY=0;exitDx=0;exitDy=0;" edge="1" parent="1" source="0EhZLs44Lt3yZ8SNb6A7-84">
          <mxGeometry width="50" height="50" relative="1" as="geometry">
            <mxPoint x="520" y="510" as="sourcePoint" />
            <mxPoint x="1020" y="200" as="targetPoint" />
          </mxGeometry>
        </mxCell>
        <mxCell id="0EhZLs44Lt3yZ8SNb6A7-104" value="" style="endArrow=none;html=1;rounded=0;entryX=0.5;entryY=1;entryDx=0;entryDy=0;exitX=0.5;exitY=0;exitDx=0;exitDy=0;" edge="1" parent="1" source="21ea969265ad0168-6" target="0EhZLs44Lt3yZ8SNb6A7-7">
          <mxGeometry width="50" height="50" relative="1" as="geometry">
            <mxPoint x="520" y="510" as="sourcePoint" />
            <mxPoint x="570" y="460" as="targetPoint" />
          </mxGeometry>
        </mxCell>
        <mxCell id="0EhZLs44Lt3yZ8SNb6A7-105" value="" style="endArrow=none;html=1;rounded=0;entryX=0.5;entryY=1;entryDx=0;entryDy=0;exitX=0.5;exitY=0;exitDx=0;exitDy=0;" edge="1" parent="1" source="0EhZLs44Lt3yZ8SNb6A7-19" target="21ea969265ad0168-6">
          <mxGeometry width="50" height="50" relative="1" as="geometry">
            <mxPoint x="520" y="510" as="sourcePoint" />
            <mxPoint x="570" y="460" as="targetPoint" />
          </mxGeometry>
        </mxCell>
        <mxCell id="0EhZLs44Lt3yZ8SNb6A7-106" value="" style="endArrow=none;html=1;rounded=0;entryX=0.5;entryY=1;entryDx=0;entryDy=0;exitX=0.5;exitY=0;exitDx=0;exitDy=0;" edge="1" parent="1" source="0EhZLs44Lt3yZ8SNb6A7-24" target="0EhZLs44Lt3yZ8SNb6A7-30">
          <mxGeometry width="50" height="50" relative="1" as="geometry">
            <mxPoint x="520" y="510" as="sourcePoint" />
            <mxPoint x="570" y="460" as="targetPoint" />
          </mxGeometry>
        </mxCell>
        <mxCell id="0EhZLs44Lt3yZ8SNb6A7-107" value="" style="endArrow=none;html=1;rounded=0;entryX=0.5;entryY=1;entryDx=0;entryDy=0;exitX=0.5;exitY=0;exitDx=0;exitDy=0;" edge="1" parent="1" source="0EhZLs44Lt3yZ8SNb6A7-35" target="0EhZLs44Lt3yZ8SNb6A7-24">
          <mxGeometry width="50" height="50" relative="1" as="geometry">
            <mxPoint x="520" y="510" as="sourcePoint" />
            <mxPoint x="330" y="590" as="targetPoint" />
          </mxGeometry>
        </mxCell>
        <mxCell id="0EhZLs44Lt3yZ8SNb6A7-108" value="" style="endArrow=none;html=1;rounded=0;entryX=0.5;entryY=1;entryDx=0;entryDy=0;exitX=0.5;exitY=0;exitDx=0;exitDy=0;" edge="1" parent="1" source="0EhZLs44Lt3yZ8SNb6A7-54" target="0EhZLs44Lt3yZ8SNb6A7-60">
          <mxGeometry width="50" height="50" relative="1" as="geometry">
            <mxPoint x="520" y="510" as="sourcePoint" />
            <mxPoint x="570" y="460" as="targetPoint" />
          </mxGeometry>
        </mxCell>
        <mxCell id="0EhZLs44Lt3yZ8SNb6A7-109" value="" style="endArrow=none;html=1;rounded=0;entryX=0.5;entryY=1;entryDx=0;entryDy=0;exitX=0.5;exitY=0;exitDx=0;exitDy=0;" edge="1" parent="1" source="0EhZLs44Lt3yZ8SNb6A7-68" target="0EhZLs44Lt3yZ8SNb6A7-74">
          <mxGeometry width="50" height="50" relative="1" as="geometry">
            <mxPoint x="520" y="510" as="sourcePoint" />
            <mxPoint x="570" y="460" as="targetPoint" />
          </mxGeometry>
        </mxCell>
        <mxCell id="0EhZLs44Lt3yZ8SNb6A7-110" value="" style="endArrow=none;html=1;rounded=0;entryX=0.5;entryY=1;entryDx=0;entryDy=0;exitX=0.5;exitY=0;exitDx=0;exitDy=0;" edge="1" parent="1" source="0EhZLs44Lt3yZ8SNb6A7-78" target="0EhZLs44Lt3yZ8SNb6A7-84">
          <mxGeometry width="50" height="50" relative="1" as="geometry">
            <mxPoint x="520" y="510" as="sourcePoint" />
            <mxPoint x="570" y="460" as="targetPoint" />
          </mxGeometry>
        </mxCell>
        <mxCell id="0EhZLs44Lt3yZ8SNb6A7-111" value="" style="endArrow=none;html=1;rounded=0;entryX=0.5;entryY=1;entryDx=0;entryDy=0;exitX=0.5;exitY=0;exitDx=0;exitDy=0;" edge="1" parent="1" source="0EhZLs44Lt3yZ8SNb6A7-88" target="0EhZLs44Lt3yZ8SNb6A7-68">
          <mxGeometry width="50" height="50" relative="1" as="geometry">
            <mxPoint x="520" y="510" as="sourcePoint" />
            <mxPoint x="570" y="460" as="targetPoint" />
          </mxGeometry>
        </mxCell>
        <mxCell id="0EhZLs44Lt3yZ8SNb6A7-112" value="Signup / Sign in" style="swimlane;html=1;fontStyle=0;childLayout=stackLayout;horizontal=1;startSize=26;fillColor=#e0e0e0;horizontalStack=0;resizeParent=1;resizeLast=0;collapsible=1;marginBottom=0;swimlaneFillColor=#ffffff;align=center;rounded=1;shadow=0;comic=0;labelBackgroundColor=none;strokeWidth=1;fontFamily=Verdana;fontSize=12" vertex="1" parent="1">
          <mxGeometry x="480" y="920" width="160" height="120" as="geometry" />
        </mxCell>
        <mxCell id="0EhZLs44Lt3yZ8SNb6A7-113" value="Email" style="text;html=1;strokeColor=#666666;fillColor=#f5f5f5;spacingLeft=4;spacingRight=4;whiteSpace=wrap;overflow=hidden;rotatable=0;points=[[0,0.5],[1,0.5]];portConstraint=eastwest;fontColor=#333333;" vertex="1" parent="0EhZLs44Lt3yZ8SNb6A7-112">
          <mxGeometry y="26" width="160" height="26" as="geometry" />
        </mxCell>
        <mxCell id="0EhZLs44Lt3yZ8SNb6A7-114" value="Password" style="text;html=1;strokeColor=#666666;fillColor=#f5f5f5;spacingLeft=4;spacingRight=4;whiteSpace=wrap;overflow=hidden;rotatable=0;points=[[0,0.5],[1,0.5]];portConstraint=eastwest;fontColor=#333333;" vertex="1" parent="0EhZLs44Lt3yZ8SNb6A7-112">
          <mxGeometry y="52" width="160" height="26" as="geometry" />
        </mxCell>
        <mxCell id="0EhZLs44Lt3yZ8SNb6A7-115" value="Confirm" style="text;html=1;strokeColor=#82b366;fillColor=#d5e8d4;spacingLeft=4;spacingRight=4;whiteSpace=wrap;overflow=hidden;rotatable=0;points=[[0,0.5],[1,0.5]];portConstraint=eastwest;" vertex="1" parent="0EhZLs44Lt3yZ8SNb6A7-112">
          <mxGeometry y="78" width="160" height="26" as="geometry" />
        </mxCell>
        <mxCell id="0EhZLs44Lt3yZ8SNb6A7-116" value="Verification" style="swimlane;html=1;fontStyle=0;childLayout=stackLayout;horizontal=1;startSize=26;fillColor=#e0e0e0;horizontalStack=0;resizeParent=1;resizeLast=0;collapsible=1;marginBottom=0;swimlaneFillColor=#ffffff;align=center;rounded=1;shadow=0;comic=0;labelBackgroundColor=none;strokeWidth=1;fontFamily=Verdana;fontSize=12" vertex="1" parent="1">
          <mxGeometry x="690" y="920" width="160" height="120" as="geometry" />
        </mxCell>
        <mxCell id="0EhZLs44Lt3yZ8SNb6A7-117" value="We sent you a code to verify your number" style="text;html=1;strokeColor=#6c8ebf;fillColor=#dae8fc;spacingLeft=4;spacingRight=4;whiteSpace=wrap;overflow=hidden;rotatable=0;points=[[0,0.5],[1,0.5]];portConstraint=eastwest;" vertex="1" parent="0EhZLs44Lt3yZ8SNb6A7-116">
          <mxGeometry y="26" width="160" height="44" as="geometry" />
        </mxCell>
        <mxCell id="0EhZLs44Lt3yZ8SNb6A7-119" value="Confirm" style="text;html=1;strokeColor=#82b366;fillColor=#d5e8d4;spacingLeft=4;spacingRight=4;whiteSpace=wrap;overflow=hidden;rotatable=0;points=[[0,0.5],[1,0.5]];portConstraint=eastwest;" vertex="1" parent="0EhZLs44Lt3yZ8SNb6A7-116">
          <mxGeometry y="70" width="160" height="26" as="geometry" />
        </mxCell>
        <mxCell id="0EhZLs44Lt3yZ8SNb6A7-120" value="Notification" style="swimlane;html=1;fontStyle=0;childLayout=stackLayout;horizontal=1;startSize=26;fillColor=#e0e0e0;horizontalStack=0;resizeParent=1;resizeLast=0;collapsible=1;marginBottom=0;swimlaneFillColor=#ffffff;align=center;rounded=1;shadow=0;comic=0;labelBackgroundColor=none;strokeWidth=1;fontFamily=Verdana;fontSize=12" vertex="1" parent="1">
          <mxGeometry x="260" y="920" width="160" height="120" as="geometry" />
        </mxCell>
        <mxCell id="0EhZLs44Lt3yZ8SNb6A7-121" value="Do you want to tuen on notifications?" style="text;html=1;strokeColor=#9673a6;fillColor=#e1d5e7;spacingLeft=4;spacingRight=4;whiteSpace=wrap;overflow=hidden;rotatable=0;points=[[0,0.5],[1,0.5]];portConstraint=eastwest;" vertex="1" parent="0EhZLs44Lt3yZ8SNb6A7-120">
          <mxGeometry y="26" width="160" height="44" as="geometry" />
        </mxCell>
        <mxCell id="0EhZLs44Lt3yZ8SNb6A7-122" value="Confirm" style="text;html=1;strokeColor=#82b366;fillColor=#d5e8d4;spacingLeft=4;spacingRight=4;whiteSpace=wrap;overflow=hidden;rotatable=0;points=[[0,0.5],[1,0.5]];portConstraint=eastwest;" vertex="1" parent="0EhZLs44Lt3yZ8SNb6A7-120">
          <mxGeometry y="70" width="160" height="26" as="geometry" />
        </mxCell>
        <mxCell id="0EhZLs44Lt3yZ8SNb6A7-123" value="Privacy Policy &amp;amp; Terms" style="swimlane;html=1;fontStyle=0;childLayout=stackLayout;horizontal=1;startSize=26;fillColor=#e0e0e0;horizontalStack=0;resizeParent=1;resizeLast=0;collapsible=1;marginBottom=0;swimlaneFillColor=#ffffff;align=center;rounded=1;shadow=0;comic=0;labelBackgroundColor=none;strokeWidth=1;fontFamily=Verdana;fontSize=12" vertex="1" parent="1">
          <mxGeometry x="40" y="920" width="160" height="150" as="geometry" />
        </mxCell>
        <mxCell id="0EhZLs44Lt3yZ8SNb6A7-124" value="Terms of services" style="text;html=1;strokeColor=#666666;fillColor=#f5f5f5;spacingLeft=4;spacingRight=4;whiteSpace=wrap;overflow=hidden;rotatable=0;points=[[0,0.5],[1,0.5]];portConstraint=eastwest;fontColor=#333333;" vertex="1" parent="0EhZLs44Lt3yZ8SNb6A7-123">
          <mxGeometry y="26" width="160" height="44" as="geometry" />
        </mxCell>
        <mxCell id="0EhZLs44Lt3yZ8SNb6A7-126" value="Privacy Policy" style="text;html=1;strokeColor=#666666;fillColor=#f5f5f5;spacingLeft=4;spacingRight=4;whiteSpace=wrap;overflow=hidden;rotatable=0;points=[[0,0.5],[1,0.5]];portConstraint=eastwest;fontColor=#333333;" vertex="1" parent="0EhZLs44Lt3yZ8SNb6A7-123">
          <mxGeometry y="70" width="160" height="40" as="geometry" />
        </mxCell>
        <mxCell id="0EhZLs44Lt3yZ8SNb6A7-125" value="Confirm" style="text;html=1;strokeColor=#82b366;fillColor=#d5e8d4;spacingLeft=4;spacingRight=4;whiteSpace=wrap;overflow=hidden;rotatable=0;points=[[0,0.5],[1,0.5]];portConstraint=eastwest;" vertex="1" parent="0EhZLs44Lt3yZ8SNb6A7-123">
          <mxGeometry y="110" width="160" height="26" as="geometry" />
        </mxCell>
        <mxCell id="0EhZLs44Lt3yZ8SNb6A7-127" value="" style="endArrow=none;dashed=1;html=1;dashPattern=1 3;strokeWidth=2;rounded=0;" edge="1" parent="1">
          <mxGeometry width="50" height="50" relative="1" as="geometry">
            <mxPoint x="40" y="880" as="sourcePoint" />
            <mxPoint x="1080" y="880" as="targetPoint" />
          </mxGeometry>
        </mxCell>
      </root>
    </mxGraphModel>
  </diagram>
</mxfile>
